<svg id="Layer_1" enable-background="new 0 0 511.939 511.939" height="512" viewBox="0 0 511.939 511.939" width="512" xmlns="http://www.w3.org/2000/svg"><g><path d="m294.768 255.109 6.183-48.601h-90.04l6.184 48.601z"/><path d="m409.48 63.586c-41.004-41.004-95.522-63.586-153.511-63.586-57.988 0-112.506 22.582-153.51 63.586s-63.586 95.521-63.586 153.51c0 34.415 11.313 71.246 33.623 109.468 17.38 29.775 41.499 60.563 71.688 91.508 50.988 52.266 101.228 86.679 103.342 88.118l8.443 5.749 8.443-5.749c2.113-1.439 52.354-35.853 103.342-88.118 30.189-30.945 54.309-61.733 71.688-91.508 22.311-38.223 33.623-75.053 33.623-109.468.001-57.989-22.581-112.507-63.585-153.51zm-153.549 311.199c-88.053 0-159.69-71.637-159.69-159.69s71.637-159.69 159.69-159.69 159.69 71.637 159.69 159.69-71.636 159.69-159.69 159.69z"/><path d="m255.931 85.405c-71.511 0-129.69 58.179-129.69 129.69s58.179 129.69 129.69 129.69 129.69-58.179 129.69-129.69-58.178-129.69-129.69-129.69zm92.052 121.103h-16.79l-10 78.601h-130.523l-10-78.601h-16.79v-30h47.099v-11.542c0-24.814 20.188-45.002 45.002-45.002s45.002 20.188 45.002 45.002v11.542h47z"/><path d="m255.981 149.964c-8.272 0-15.002 6.73-15.002 15.002v11.542h30.004v-11.542c0-8.272-6.73-15.002-15.002-15.002z"/></g></svg>